<svg width="1323" height="1539" viewBox="0 0 1323 1539" fill="none" xmlns="http://www.w3.org/2000/svg">
<g opacity="0.5">
<path d="M995.292 758.49C1007.92 758.202 1017.8 747.728 1016.49 735.153C1011.39 686.222 996.488 638.286 972.392 593.502C944.562 541.778 905.031 495.315 856.149 456.875C807.268 418.435 750.033 388.803 687.847 369.74C625.661 350.677 559.794 342.572 494.16 345.908C428.526 349.243 364.465 363.951 305.786 389.156C247.106 414.362 195.006 449.55 152.581 492.63C110.156 535.711 78.2733 585.803 58.8272 639.93C41.9398 686.936 34.7312 736.151 37.4587 785.354C38.1481 797.79 49.3137 806.926 61.7138 805.947C74.4486 804.941 83.6001 793.671 83.0055 780.895C80.9747 737.262 87.5564 693.66 102.532 651.976C120.166 602.894 149.077 557.471 187.547 518.406C226.017 479.342 273.261 447.433 326.47 424.578C379.68 401.722 437.769 388.385 497.285 385.361C556.8 382.336 616.528 389.685 672.917 406.971C729.306 424.257 781.206 451.127 825.531 485.984C869.856 520.84 905.702 562.972 930.938 609.875C952.439 649.837 965.865 692.567 970.696 736.2C972.087 748.768 982.667 758.777 995.292 758.49Z" fill="#DD7F4C"/>
<path d="M952.886 760.982C964.364 760.721 973.347 751.199 972.16 739.767C967.522 695.13 953.97 651.4 932.049 610.546C906.742 563.382 870.799 521.015 826.356 485.963C781.912 450.91 729.876 423.888 673.34 406.503C616.804 389.118 556.922 381.724 497.254 384.762C437.586 387.799 379.349 401.205 326.006 424.184C272.662 447.162 225.301 479.244 186.737 518.522C148.173 557.799 119.193 603.471 101.521 652.823C86.1675 695.698 79.6204 740.59 82.1135 785.47C82.7417 796.779 92.8954 805.088 104.172 804.196C115.746 803.28 124.063 793.037 123.521 781.426C121.659 741.618 127.637 701.838 141.255 663.809C157.28 619.057 183.559 577.643 218.528 542.026C253.497 506.41 296.444 477.319 344.814 456.482C393.185 435.646 445.993 423.489 500.099 420.735C554.206 417.98 608.505 424.685 659.771 440.45C711.037 456.214 758.223 480.717 798.523 512.502C838.824 544.287 871.417 582.705 894.364 625.473C913.926 661.929 926.138 700.912 930.529 740.719C931.79 752.145 941.408 761.244 952.886 760.982Z" fill="#92C868"/>
<path d="M913.621 764.033C924.231 763.791 932.535 754.99 931.437 744.422C927.193 703.594 914.877 663.595 894.982 626.222C871.982 583.015 839.322 544.2 798.945 512.084C758.567 479.968 711.296 455.207 659.941 439.272C608.586 423.337 554.195 416.554 500.002 419.326C445.809 422.097 392.919 434.367 344.477 455.406C296.034 476.445 253.028 505.824 218.015 541.795C183.001 577.767 156.695 619.598 140.659 664.801C126.75 704.01 120.815 745.063 123.065 786.11C123.638 796.573 133.033 804.262 143.465 803.431C154.155 802.58 161.838 793.121 161.344 782.396C159.671 746.061 165.081 709.758 177.393 675.049C191.907 634.135 215.718 596.273 247.409 563.714C279.101 531.155 318.027 504.563 361.874 485.52C405.72 466.477 453.592 455.372 502.644 452.863C551.696 450.354 600.926 456.494 647.409 470.917C693.892 485.34 736.679 507.752 773.225 536.821C809.772 565.89 839.333 601.023 860.151 640.13C877.864 673.404 888.94 708.977 892.953 745.302C894.12 755.863 903.011 764.275 913.621 764.033Z" fill="#69A8E3"/>
<path d="M879.178 767.756C888.835 767.536 896.393 759.524 895.4 749.904C891.538 712.509 880.315 675.871 862.184 641.64C841.239 602.098 811.503 566.574 774.743 537.18C737.983 507.785 694.95 485.12 648.201 470.532C601.452 455.944 551.942 449.731 502.614 452.261C453.285 454.791 405.145 466.014 361.055 485.262C316.965 504.51 277.825 531.39 245.962 564.304C214.098 597.219 190.162 635.496 175.575 676.86C162.913 712.765 157.52 750.36 159.588 787.95C160.112 797.479 168.668 804.483 178.168 803.723C187.895 802.946 194.884 794.341 194.431 784.583C192.886 751.297 197.801 718.038 209.013 686.243C222.216 648.803 243.882 614.157 272.722 584.365C301.563 554.573 336.99 530.244 376.897 512.822C416.804 495.4 460.377 485.242 505.025 482.952C549.674 480.662 594.487 486.286 636.801 499.49C679.114 512.694 718.065 533.208 751.337 559.814C784.61 586.42 811.525 618.574 830.482 654.364C846.627 684.844 856.72 717.431 860.371 750.705C861.426 760.32 869.52 767.976 879.178 767.756Z" fill="#6A4497"/>
<path d="M846.772 770.066C855.556 769.866 862.431 762.579 861.529 753.829C858.016 719.768 847.806 686.396 831.309 655.217C812.256 619.207 785.207 586.856 751.77 560.087C718.333 533.317 679.189 512.676 636.667 499.39C594.144 486.104 549.111 480.445 504.242 482.748C459.374 485.051 415.588 495.27 375.485 512.797C335.382 530.324 299.783 554.802 270.802 584.775C241.821 614.748 220.05 649.605 206.784 687.274C195.267 719.976 190.364 754.218 192.249 788.455C192.726 797.123 200.509 803.494 209.151 802.803C217.997 802.095 224.354 794.27 223.942 785.395C222.532 755.075 227 724.78 237.2 695.819C249.207 661.724 268.912 630.174 295.144 603.044C321.375 575.915 353.598 553.759 389.896 537.895C426.193 522.031 465.826 512.781 506.437 510.697C547.049 508.612 587.81 513.735 626.299 525.76C664.787 537.786 700.217 556.469 730.482 580.698C760.747 604.928 785.23 634.21 802.475 666.804C817.164 694.566 826.346 724.249 829.667 754.557C830.626 763.303 837.988 770.266 846.772 770.066Z" fill="#D8555A"/>
</g>
</svg>
