<svg width="256" height="256" viewBox="0 0 256 256" fill="none" xmlns="http://www.w3.org/2000/svg">
<path d="M244 168H208V139.314C208.021 131.595 205.169 124.145 200 118.413V105.659L200.823 106.482L212 125.108V132C212 132.743 212.207 133.471 212.597 134.103C212.988 134.735 213.547 135.245 214.211 135.577L222.211 139.577C222.962 139.953 223.812 140.082 224.641 139.948C225.47 139.813 226.235 139.421 226.829 138.827L234.829 130.827C235.4 130.256 235.785 129.524 235.933 128.729C236.081 127.934 235.984 127.113 235.656 126.374C235.656 126.374 219.646 90.3575 219.641 90.347C219.496 90.027 205.252 72.853 205.252 72.853C200.651 67.3343 194.224 63.6489 187.137 62.4665L176 60.6115V56.3405L177.658 55.01C179.746 53.3341 181.261 51.0515 181.996 48.4773C182.731 45.9031 182.649 43.1643 181.76 40.6389C180.872 38.1136 179.222 35.9262 177.038 34.3788C174.853 32.8313 172.242 32.0002 169.565 32H166.141L164.281 29.2105C162.371 26.3445 159.478 24.2759 156.148 23.3946C152.818 22.5132 149.281 22.8799 146.203 24.4255C143.125 25.9711 140.718 28.589 139.436 31.786C138.154 34.983 138.086 38.5384 139.243 41.7825L144.063 55.2915C144.025 55.515 144 65.5775 144 65.5775C144.001 69.3952 145.367 73.0868 147.85 75.9865C150.334 78.8861 153.771 80.8028 157.544 81.391C157.607 83.2594 158.073 85.0922 158.91 86.764L160 88.9445V90.5945L145.426 108.813L130.211 116.421C129.35 116.851 128.673 117.578 128.304 118.467C127.936 119.357 127.901 120.35 128.205 121.263L132.205 133.263C132.47 134.06 132.98 134.753 133.661 135.244C134.342 135.736 135.16 136 136 136H144C144.821 136 145.622 135.748 146.294 135.277L158.741 126.564L152.065 163.285C151.88 164.303 152.096 165.354 152.67 166.215C153.243 167.077 154.129 167.683 155.14 167.906L152.383 181.691C152.022 183.477 152.214 185.33 152.933 187.003L163.011 210.518L153.779 216.672C153.232 217.038 152.783 217.532 152.472 218.113C152.162 218.694 152 219.342 152 220V228C152 229.061 152.422 230.078 153.172 230.828C153.922 231.579 154.939 232 156 232H184C185.061 232 186.078 231.579 186.829 230.828C187.579 230.078 188 229.061 188 228C188 228 187.997 211.95 187.996 211.924C187.996 211.871 176.269 183.806 176.269 183.806L180.881 169.617L183.358 184.48C183.703 186.583 184.786 188.496 186.413 189.874C188.04 191.252 190.104 192.006 192.236 192H221.86L228.672 202.219C229.037 202.767 229.532 203.216 230.113 203.527C230.693 203.837 231.342 204 232 204C232.107 204 232.214 203.995 232.321 203.988L244.321 203.025C245.323 202.944 246.258 202.489 246.94 201.75C247.622 201.011 248.001 200.043 248.001 199.037V172C248.001 171.475 247.897 170.954 247.696 170.469C247.495 169.984 247.2 169.543 246.829 169.171C246.457 168.8 246.016 168.505 245.531 168.304C245.046 168.103 244.525 168 244 168ZM186.883 160L183.795 150.735C183.495 149.834 182.884 149.069 182.071 148.577C181.258 148.085 180.297 147.899 179.359 148.051C178.422 148.203 177.569 148.684 176.953 149.407C176.338 150.131 176 151.05 176 152V160H160.793L167.339 124H194.267C197.978 128.237 200.016 133.681 200 139.314V160H186.883ZM223.21 131.133L220 129.528V124C220 123.275 219.803 122.564 219.43 121.942L209.037 104.62L214.71 98.947L227.229 127.115L223.21 131.133ZM199.106 77.975L210.589 91.7545L204 98.3435L198.829 93.1715C198.269 92.6121 197.556 92.2311 196.78 92.0767C196.005 91.9224 195.2 92.0016 194.469 92.3043C193.738 92.6071 193.114 93.1198 192.674 93.7776C192.235 94.4355 192 95.2089 192 96V116H168V88C168 87.3789 167.855 86.7664 167.578 86.211L166.065 83.186C165.662 82.3807 165.484 81.4811 165.552 80.583C168.121 79.6329 170.404 78.0385 172.18 75.9527C173.957 73.8669 175.168 71.3597 175.697 68.6715L185.822 70.3585C191.019 71.2258 195.732 73.9282 199.106 77.975ZM149.803 31.571C151.136 30.9069 152.666 30.7516 154.106 31.1343C155.546 31.517 156.797 32.4114 157.625 33.65L160.672 38.221C161.038 38.7685 161.533 39.2173 162.113 39.5276C162.694 39.838 163.342 40.0002 164 40H169.565C170.585 40.0003 171.581 40.3172 172.413 40.9071C173.246 41.497 173.875 42.3307 174.213 43.2932C174.552 44.2557 174.583 45.2996 174.303 46.2808C174.023 47.262 173.446 48.1321 172.65 48.771L170.593 50.421H150.82L146.779 39.0925C146.278 37.6857 146.309 36.1445 146.866 34.7591C147.423 33.3738 148.468 32.2399 149.803 31.571ZM152 65.5775V58.4225H168V65.5775C168 67.4172 167.366 69.2008 166.205 70.6277C165.044 72.0547 163.426 73.0378 161.625 73.4115C161.584 73.4185 161.542 73.426 161.501 73.434C160.344 73.6553 159.153 73.6185 158.012 73.326C156.871 73.0335 155.809 72.4927 154.902 71.7421C153.994 70.9916 153.263 70.0498 152.762 68.9841C152.261 67.9185 152.001 66.7552 152.001 65.5775H152ZM142.74 128H138.883L136.892 122.026L149.789 115.576C150.306 115.318 150.762 114.951 151.124 114.5L160 103.404V115.918L142.74 128ZM160 224V222.141L169.211 216H180V224H160ZM177.934 208H170.638L160.288 183.85C160.208 183.664 160.186 183.458 160.226 183.26L163.28 168H172.994L168.194 182.764C167.894 183.685 167.939 184.685 168.321 185.576L177.934 208ZM191.25 183.164L188.722 168H200V172C200 173.061 200.422 174.078 201.172 174.828C201.922 175.579 202.939 176 204 176H220V184H192.236C191.999 184 191.77 183.917 191.589 183.763C191.409 183.61 191.288 183.398 191.25 183.164ZM240 195.345L234.024 195.824L228 186.789V176H240V195.345Z" fill="url(#paint0_linear)"/>
<path d="M119.5 176C115.119 176.001 110.8 177.03 106.89 179.005C102.979 180.981 99.5878 183.847 96.988 187.373L87.8355 166.781L80 127.603V109.657L84.504 114.16L87.681 123.693L84.4225 130.211C84.0471 130.962 83.9175 131.812 84.0521 132.641C84.1868 133.47 84.5787 134.235 85.1725 134.828L93.1725 142.828C93.8264 143.482 94.6866 143.89 95.6069 143.981C96.5272 144.072 97.4506 143.841 98.22 143.328L110.22 135.328C110.925 134.858 111.463 134.176 111.755 133.38C112.048 132.585 112.08 131.717 111.847 130.901L103.847 102.901C103.733 102.504 103.559 102.126 103.329 101.781L95.386 89.8665L90.036 80.953C87.681 77.0038 84.5661 73.5609 80.8716 70.8236C77.1771 68.0863 72.9764 66.1089 68.5125 65.006L67.2925 64.701C67.7607 63.1779 67.9991 61.5934 68 60V48.844C68 44.6005 66.3143 40.5309 63.3137 37.5303C60.3132 34.5297 56.2435 32.844 52 32.844C47.7566 32.844 43.6869 34.5297 40.6863 37.5303C37.6857 40.5309 36 44.6005 36 48.844V60C35.9998 61.6985 36.2699 63.3863 36.8 65C30.5961 67.7292 25.3235 72.2095 21.6288 77.8915C17.9341 83.5736 15.9779 90.2104 16 96.988V104C16 105.061 16.4215 106.078 17.1716 106.828C17.9217 107.579 18.9392 108 20 108V123.109L12.878 138.3C12.512 139.081 12.4083 139.959 12.5822 140.804C12.7561 141.649 13.1983 142.415 13.843 142.987L20.9 149.26L16.425 158.21C16.1732 158.713 16.0303 159.263 16.0056 159.824C15.981 160.386 16.0752 160.946 16.282 161.469C16.4888 161.991 16.8036 162.464 17.2058 162.857C17.608 163.249 18.0886 163.552 18.616 163.746L13.4315 175.839C12.8278 177.261 12.5981 178.814 12.7644 180.35C12.9307 181.886 13.4874 183.354 14.3815 184.615L32 209.282V228C32 229.061 32.4215 230.078 33.1716 230.828C33.9217 231.579 34.9392 232 36 232H48C48.6908 232 49.3697 231.821 49.9708 231.481C50.5719 231.14 51.0746 230.65 51.43 230.058L63.43 210.058C63.8892 209.293 64.0796 208.397 63.9709 207.512C63.8621 206.626 63.4606 205.802 62.83 205.171L51.03 193.371L40.9 179.865L51.596 161.756L56.575 174.202C56.8716 174.944 57.3837 175.58 58.0452 176.028C58.7067 176.476 59.4874 176.716 60.2865 176.717C60.5455 176.717 62.145 176.426 62.145 176.426L84 209.211V228C84 229.061 84.4215 230.078 85.1716 230.828C85.9217 231.579 86.9392 232 88 232H119.5C126.926 232 134.048 229.05 139.299 223.799C144.55 218.548 147.5 211.426 147.5 204C147.5 196.574 144.55 189.452 139.299 184.201C134.048 178.95 126.926 176 119.5 176ZM133.006 218.736L129.906 213.57L133.242 207.792L139.15 207.7C138.349 211.946 136.193 215.818 133.006 218.736ZM106.568 209.197L109.093 213.57L105.993 218.736C103.218 216.194 101.216 212.921 100.216 209.293L106.568 209.197ZM122.847 198.202L126.197 204.002L122.847 209.802H116.153L112.803 204.002L116.153 198.202H122.847ZM119.5 224C117.235 224.001 114.986 223.615 112.85 222.858L115.887 217.798H123.115L126.151 222.858C124.015 223.615 121.766 224.001 119.5 224ZM133.004 199.794L129.907 194.43L133.007 189.264C136.041 192.042 138.144 195.687 139.031 199.703L133.004 199.794ZM126.15 185.141L123.114 190.2H115.886L112.85 185.141C117.153 183.62 121.847 183.62 126.15 185.141ZM105.994 189.264L109.094 194.43L105.175 201.217L99.688 201.301C100.319 196.675 102.55 192.416 105.994 189.264H105.994ZM103.35 130.291L96.5085 134.853L92.8655 131.21L95.576 125.789C95.8111 125.319 95.9512 124.808 95.9885 124.284C96.0259 123.76 95.9596 123.233 95.7935 122.735L91.7935 110.735C91.5967 110.146 91.2658 109.611 90.827 109.171L82.7515 101.095L90.629 97.157L96.324 105.699L103.35 130.291ZM44 60V52.844H60V60C60 62.1217 59.1572 64.1566 57.6569 65.6568C56.1566 67.1571 54.1218 68 52 68C49.8783 68 47.8435 67.1571 46.3432 65.6568C44.8429 64.1566 44 62.1217 44 60ZM47.5625 42.188C48.4725 41.581 49.4973 41.1671 50.5735 40.972C51.6498 40.7768 52.7547 40.8046 53.8198 41.0535C54.8849 41.3025 55.8877 41.7673 56.766 42.4193C57.6442 43.0713 58.3794 43.8965 58.926 44.844H45.076C45.6896 43.7793 46.5405 42.8704 47.5625 42.188ZM24 96.988C23.9824 91.588 25.5922 86.3081 28.6194 81.8364C31.6466 77.3648 35.9509 73.909 40.971 71.9195L41.224 71.8195C44.1673 74.5176 48.0157 76.0134 52.0085 76.0113C56.0014 76.0091 59.8481 74.5092 62.7885 71.808C62.8685 71.8335 62.9475 71.858 63.03 71.8815L66.573 72.767C70.0166 73.618 73.2571 75.1436 76.1071 77.2554C78.9571 79.3672 81.36 82.0233 83.1765 85.07L86.3475 90.355L74.211 96.4235C73.5468 96.7556 72.9882 97.2661 72.5977 97.8978C72.2072 98.5295 72.0002 99.2574 72 100V124H40V92C40 90.9391 39.5786 89.9217 38.8285 89.1716C38.0783 88.4214 37.0609 88 36 88C34.9392 88 33.9217 88.4214 33.1716 89.1716C32.4215 89.9217 32 90.9391 32 92V100H24V96.988ZM21.389 138.994L27.622 125.7C27.8714 125.168 28.0004 124.588 28 124V108H32V127.055L24.6 141.85L21.389 138.994ZM45.7355 224H40V209.656L48 201.656L54.9635 208.62L45.7355 224ZM42.7185 195.624L36.5105 201.832L20.89 179.965C20.7909 179.825 20.7292 179.662 20.7108 179.491C20.6925 179.32 20.718 179.148 20.785 178.99L26.227 166.292L37.767 170.139L32.672 177.781C32.2129 178.47 31.9787 179.284 32.0016 180.111C32.0245 180.938 32.3035 181.738 32.8 182.4L42.7185 195.624ZM55.714 150.514C55.4275 149.798 54.9399 149.18 54.31 148.734C53.6802 148.289 52.9349 148.035 52.164 148.003C52.1085 148.003 52.0525 148 51.997 148C51.2544 148 50.5265 148.207 49.8948 148.598C49.2632 148.988 48.7527 149.547 48.4205 150.211L41.9705 163.108L25.64 157.663L38.472 132H72.722L79.294 164.858L62.7675 168.145L55.714 150.514ZM70.632 174.737L81.6435 172.547L91.8905 195.602C92.0476 195.955 92.2551 196.283 92.5065 196.576C91.839 198.994 91.5005 201.491 91.5 204C91.5 204.762 91.539 205.514 91.6 206.261C91.5209 206.095 91.4303 205.935 91.329 205.781L70.632 174.737ZM92 224V209.246C93.074 214.859 95.8417 220.008 99.9305 224H92Z" fill="url(#paint1_linear)"/>
<defs>
<linearGradient id="paint0_linear" x1="188" y1="22.9247" x2="188" y2="232" gradientUnits="userSpaceOnUse">
<stop stop-color="#69A8E3"/>
<stop offset="1" stop-color="#6A4497"/>
</linearGradient>
<linearGradient id="paint1_linear" x1="80" y1="32.844" x2="80" y2="232" gradientUnits="userSpaceOnUse">
<stop stop-color="#69A8E3"/>
<stop offset="1" stop-color="#6A4497"/>
</linearGradient>
</defs>
</svg>
