<svg width="658" height="658" viewBox="0 0 658 658" fill="none" xmlns="http://www.w3.org/2000/svg">
<path d="M321.73 204.67C322.685 205.625 323.818 206.382 325.065 206.899C326.313 207.416 327.65 207.682 329 207.682C330.35 207.682 331.687 207.416 332.935 206.899C334.182 206.382 335.315 205.625 336.27 204.67L399.294 141.645C403.084 137.855 406.091 133.355 408.142 128.403C410.194 123.451 411.25 118.144 411.25 112.784C411.25 107.424 410.194 102.116 408.143 97.1644C406.092 92.2123 403.086 87.7127 399.296 83.9225C395.506 80.1323 391.007 77.1257 386.055 75.0743C381.103 73.023 375.795 71.9671 370.435 71.9669C365.075 71.9667 359.768 73.0223 354.816 75.0733C349.864 77.1243 345.364 80.1306 341.574 83.9206L329 96.4971L316.426 83.9206C308.772 76.2659 298.39 71.9655 287.564 71.9653C276.739 71.9652 266.357 76.2654 258.703 83.9199C251.048 91.5744 246.748 101.956 246.747 112.782C246.747 123.607 251.047 133.989 258.702 141.643L321.73 204.67ZM287.565 92.5311C290.226 92.5237 292.861 93.0442 295.319 94.0625C297.776 95.0808 300.008 96.5766 301.883 98.4634L321.729 118.307C322.683 119.262 323.817 120.02 325.064 120.536C326.312 121.053 327.649 121.319 328.999 121.319C330.349 121.319 331.686 121.053 332.933 120.536C334.181 120.02 335.314 119.262 336.269 118.307L356.117 98.4621C359.93 94.7389 365.057 92.6688 370.387 92.7007C375.716 92.7325 380.818 94.8637 384.586 98.6322C388.355 102.401 390.486 107.503 390.518 112.832C390.55 118.161 388.48 123.289 384.757 127.102L329 182.86L301.122 154.981L273.244 127.102C270.412 124.269 268.484 120.661 267.703 116.732C266.922 112.804 267.324 108.733 268.857 105.033C270.39 101.332 272.985 98.1698 276.315 95.9446C279.645 93.7194 283.56 92.5315 287.565 92.5311ZM593.801 222.639C594.702 221.6 595.384 220.391 595.809 219.084C596.234 217.777 596.393 216.397 596.275 215.028C596.158 213.658 595.767 212.326 595.126 211.11C594.484 209.894 593.606 208.819 592.542 207.948L479.448 115.417C477.342 113.694 474.638 112.876 471.93 113.143C469.222 113.409 466.73 114.739 465 116.84L344.828 262.763L304.532 238.585L182.057 116.11C180.194 114.248 177.689 113.171 175.057 113.102C172.424 113.033 169.865 113.977 167.908 115.738L65.0958 208.27C63.0774 210.087 61.8598 212.628 61.7088 215.34C61.5578 218.051 62.4857 220.712 64.29 222.742L144.484 312.96L153.601 376.777L144.896 385.481C138.021 392.321 134.069 401.563 133.875 411.259C133.681 420.956 137.259 430.349 143.855 437.458C147.779 441.663 152.528 445.013 157.805 447.3C163.081 449.587 168.773 450.762 174.524 450.75C180.847 450.77 187.082 449.272 192.705 446.381L207.356 468.357C208.188 469.605 209.284 470.656 210.565 471.436C211.847 472.216 213.283 472.706 214.774 472.872L225.883 474.106L222.97 478.362C219.926 482.806 218.1 487.97 217.673 493.34C217.246 498.709 218.233 504.097 220.535 508.966C222.838 513.835 226.376 518.017 230.797 521.094C235.219 524.17 240.369 526.035 245.735 526.503C245.59 530.97 246.418 535.416 248.162 539.532C249.906 543.648 252.523 547.335 255.834 550.339C259.144 553.343 263.068 555.591 267.334 556.928C271.599 558.264 276.104 558.658 280.537 558.08C282.418 565.736 287.159 572.381 293.786 576.65C300.413 580.919 308.423 582.489 316.172 581.037C318.364 580.628 320.506 579.984 322.561 579.117C324.949 583.943 328.557 588.06 333.027 591.061C337.497 594.061 342.675 595.84 348.045 596.221C353.416 596.602 358.793 595.571 363.642 593.232C368.491 590.893 372.644 587.326 375.688 582.885L380.419 575.974C380.845 575.348 381.2 574.678 381.479 573.975C386.799 572.093 391.496 568.779 395.053 564.399C398.415 560.295 400.654 555.388 401.551 550.159C402.715 550.3 403.887 550.375 405.059 550.383C406.118 550.383 407.177 550.329 408.23 550.222C416.073 549.426 423.314 545.658 428.465 539.69C433.616 533.722 436.285 526.008 435.925 518.132C443.427 516.97 450.23 513.062 455.012 507.166C458.285 503.149 460.492 498.373 461.432 493.277C462.371 488.182 462.012 482.932 460.387 478.012C465.403 476.05 469.817 472.807 473.19 468.608C476.563 464.408 478.778 459.398 479.612 454.077C480.447 448.756 479.873 443.309 477.948 438.278C476.022 433.247 472.813 428.809 468.639 425.405L462.661 420.521V373.96L593.801 222.639ZM164.397 306.984C164.111 304.986 163.243 303.116 161.903 301.607L86.4422 216.712L174.409 137.546L290.886 254.024C291.481 254.616 292.146 255.134 292.867 255.566L331.611 278.813L323.515 288.649L265.626 298.296C264.615 298.465 263.635 298.783 262.718 299.242L201.031 330.086C200.042 330.58 199.14 331.231 198.359 332.014L171.774 358.598L164.397 306.984ZM209.208 434.074L243.257 406.69L247.836 415.848C248.536 417.248 249.547 418.47 250.791 419.421C252.035 420.371 253.48 421.025 255.015 421.332L281.628 426.654C286.284 427.596 290.472 430.117 293.484 433.791C296.495 437.465 298.146 442.066 298.156 446.817V449.964C298.156 451.41 297.851 452.839 297.261 454.159C296.671 455.479 295.809 456.66 294.732 457.624C293.655 458.589 292.386 459.315 291.009 459.756C289.632 460.196 288.177 460.342 286.74 460.182L221.804 452.966L209.208 434.074ZM242.613 504.268C240.366 502.726 238.822 500.355 238.319 497.676C237.817 494.997 238.398 492.229 239.935 489.977L249.035 476.682L272.192 479.253L256.903 501.596L256.894 501.611C255.349 503.852 252.979 505.39 250.302 505.888C247.626 506.386 244.861 505.804 242.613 504.268ZM324.749 548.092L318.966 556.532C317.402 558.724 315.041 560.216 312.39 560.687C309.738 561.157 307.008 560.568 304.786 559.047C302.564 557.526 301.027 555.193 300.507 552.551C299.986 549.909 300.523 547.168 302.001 544.918L311.143 531.561C313.106 535.934 316.065 539.786 319.784 542.81L325.324 547.33C325.136 547.561 324.951 547.796 324.778 548.047L324.749 548.092ZM345.782 510.943L377.653 536.941C379.766 538.664 381.107 541.156 381.382 543.868C381.657 546.581 380.844 549.291 379.121 551.404C377.396 553.514 374.903 554.854 372.191 555.13C369.479 555.405 366.768 554.593 364.654 552.872L332.782 526.874C331.207 525.589 330.048 523.865 329.452 521.921C328.856 519.977 328.85 517.899 329.434 515.952C330.019 514.004 331.168 512.274 332.736 510.979C334.304 509.684 336.221 508.884 338.244 508.679C338.596 508.643 338.949 508.626 339.302 508.626C341.665 508.625 343.955 509.443 345.782 510.942V510.943ZM344.422 573.951C342.29 572.494 340.785 570.287 340.208 567.77C339.631 565.253 340.024 562.61 341.309 560.37L351.648 568.805C353.485 570.296 355.486 571.572 357.613 572.608C355.925 574.35 353.676 575.441 351.262 575.686C348.849 575.932 346.426 575.317 344.422 573.951ZM413.075 526.037C412.222 527.084 411.17 527.952 409.981 528.591C408.793 529.231 407.489 529.631 406.146 529.767C404.803 529.904 403.446 529.774 402.153 529.386C400.859 528.998 399.655 528.359 398.609 527.505L366.737 501.508C364.624 499.784 363.282 497.292 363.007 494.578C362.731 491.865 363.545 489.154 365.268 487.041C366.992 484.927 369.485 483.585 372.198 483.31C374.911 483.035 377.622 483.848 379.735 485.572L411.607 511.569C412.654 512.423 413.521 513.474 414.161 514.663C414.801 515.852 415.201 517.155 415.337 518.498C415.473 519.841 415.344 521.198 414.956 522.491C414.567 523.785 413.928 524.989 413.075 526.035V526.037ZM439.07 494.166C437.346 496.278 434.854 497.62 432.142 497.895C429.429 498.17 426.718 497.357 424.605 495.633L392.734 469.637C391.158 468.352 389.999 466.628 389.403 464.683C388.807 462.739 388.801 460.662 389.386 458.714C389.971 456.767 391.12 455.036 392.688 453.742C394.257 452.447 396.173 451.647 398.197 451.442C398.548 451.406 398.9 451.388 399.253 451.388C401.614 451.387 403.903 452.204 405.729 453.701L437.601 479.7C439.713 481.425 441.055 483.918 441.331 486.631C441.606 489.344 440.794 492.056 439.072 494.171L439.07 494.166ZM410.769 431.271C409.723 430.418 408.855 429.367 408.215 428.178C407.575 426.989 407.175 425.685 407.039 424.342C406.902 422.999 407.032 421.642 407.42 420.348C407.808 419.055 408.447 417.851 409.3 416.804C410.154 415.758 411.205 414.89 412.394 414.25C413.583 413.61 414.886 413.21 416.23 413.074C417.573 412.937 418.93 413.067 420.224 413.455C421.517 413.843 422.721 414.482 423.767 415.335L455.639 441.333C457.753 443.056 459.095 445.548 459.37 448.261C459.646 450.974 458.833 453.685 457.11 455.799C455.386 457.912 452.894 459.254 450.181 459.53C447.468 459.805 444.757 458.992 442.644 457.269L410.769 431.271ZM436.764 399.399C431.597 395.18 425.2 392.75 418.534 392.476C411.868 392.201 405.293 394.096 399.796 397.877C394.299 401.657 390.176 407.118 388.047 413.441C385.918 419.764 385.898 426.607 387.989 432.942C381.989 435.294 376.876 439.466 373.368 444.872C369.861 450.278 368.134 456.647 368.43 463.084C362.07 464.082 356.183 467.047 351.595 471.562C347.007 476.078 343.948 481.916 342.848 488.259C341.448 488.099 340.039 488.035 338.631 488.068C338.604 485.883 337.882 483.764 336.569 482.017C335.256 480.271 333.421 478.988 331.33 478.355C329.239 477.722 327.001 477.771 324.94 478.496C322.879 479.221 321.102 480.583 319.868 482.386L285.027 533.292C283.462 535.48 281.102 536.967 278.453 537.434C275.804 537.902 273.078 537.313 270.858 535.793C268.639 534.274 267.103 531.945 266.581 529.307C266.058 526.668 266.59 523.93 268.063 521.68L295.072 482.228C295.623 481.419 296.055 480.537 296.357 479.606C302.801 477.769 308.47 473.881 312.505 468.532C316.541 463.183 318.722 456.664 318.719 449.964V446.817C318.697 437.316 315.396 428.114 309.372 420.767C303.348 413.42 294.972 408.378 285.659 406.495L263.978 402.159L255.945 386.094C255.26 384.72 254.276 383.516 253.064 382.573C251.852 381.629 250.444 380.97 248.943 380.643C247.443 380.315 245.888 380.329 244.393 380.682C242.899 381.036 241.503 381.72 240.308 382.685L185.952 426.399C178.254 432.59 166.145 431.296 158.964 423.515C155.982 420.302 154.365 416.057 154.453 411.675C154.541 407.293 156.327 403.116 159.435 400.025L211.719 347.74L270.525 318.324L330.687 308.3C333.137 307.892 335.356 306.611 336.935 304.694L474.356 137.824L571.332 217.168L444.602 363.395C442.984 365.263 442.094 367.653 442.094 370.125V403.755L436.764 399.399Z" fill="url(#paint0_linear)"/>
<defs>
<linearGradient id="paint0_linear" x1="163.117" y1="457.686" x2="502.735" y2="118.07" gradientUnits="userSpaceOnUse">
<stop stop-color="#D8555A"/>
<stop offset="1" stop-color="#6A4497"/>
</linearGradient>
</defs>
</svg>
