<svg width="968" height="1279" viewBox="0 0 968 1279" fill="none" xmlns="http://www.w3.org/2000/svg">
<g opacity="0.5">
<path d="M733.994 501.035C746.057 497.296 752.688 484.514 747.978 472.781C729.653 427.124 702.18 385.112 666.726 348.653C625.778 306.544 575.021 272.703 517.471 249.142C459.922 225.581 396.755 212.781 331.726 211.503C266.696 210.224 201.131 220.494 138.928 241.701C76.7255 262.908 19.1543 294.62 -30.3632 334.951C-79.8807 375.282 -120.334 423.41 -149.318 476.473C-178.302 529.536 -195.225 586.452 -199.082 643.837C-202.431 693.671 -195.867 742.976 -179.75 789.545C-175.677 801.315 -162.434 807.039 -150.778 802.696C-138.807 798.237 -133.097 784.889 -137.172 772.767C-151.091 731.363 -156.719 687.628 -153.749 643.434C-150.252 591.398 -134.906 539.788 -108.624 491.672C-82.3415 443.555 -45.6594 399.914 -0.757732 363.342C44.1439 326.77 96.3485 298.015 152.753 278.784C209.158 259.554 268.611 250.242 327.578 251.401C386.546 252.56 443.825 264.167 496.009 285.532C548.194 306.896 594.22 337.583 631.352 375.767C662.987 408.3 687.616 445.71 704.228 486.346C709.013 498.05 721.932 504.774 733.994 501.035Z" fill="#DD7F4C"/>
<path d="M693.898 515.062C704.864 511.662 710.892 500.042 706.614 489.374C689.913 447.72 664.888 409.383 632.604 376.107C595.333 337.692 549.149 306.806 496.797 285.285C444.445 263.765 386.993 252.049 327.857 250.835C268.721 249.621 209.107 258.932 152.559 278.216C96.0117 297.501 43.6843 326.364 -1.31239 363.09C-46.3091 399.817 -83.0566 443.657 -109.371 492.004C-135.685 540.352 -151.028 592.221 -154.489 644.527C-157.496 689.968 -151.481 734.934 -136.775 777.411C-133.07 788.114 -121.027 793.319 -110.428 789.369C-99.5485 785.314 -94.3585 773.183 -98.0649 762.166C-110.772 724.394 -115.933 684.501 -113.266 644.194C-110.127 596.764 -96.2141 549.73 -72.353 505.889C-48.4918 462.049 -15.1697 422.295 25.6325 388.992C66.4348 355.689 113.884 329.517 165.161 312.03C216.437 294.544 270.494 286.1 324.118 287.201C377.742 288.302 429.838 298.926 477.31 318.44C524.782 337.954 566.661 365.961 600.457 400.796C629.267 430.49 651.702 464.63 666.841 501.706C671.186 512.348 682.932 518.461 693.898 515.062Z" fill="#92C868"/>
<path d="M656.974 528.763C667.111 525.621 672.683 514.88 668.729 505.018C653.452 466.919 630.638 431.832 601.257 401.347C567.289 366.105 525.237 337.734 477.6 317.923C429.964 298.111 377.714 287.263 323.958 286.022C270.202 284.782 216.036 293.175 164.681 310.702C113.325 328.229 65.828 354.533 25.0126 388.051C-15.8028 421.568 -49.1034 461.614 -72.9097 505.808C-96.716 550.003 -110.542 597.444 -113.566 645.312C-116.189 686.833 -110.639 727.939 -97.2187 766.795C-93.798 776.7 -82.6548 781.518 -72.8508 777.858C-62.8034 774.108 -58.0097 762.905 -61.4258 752.726C-72.9984 718.243 -77.7525 681.848 -75.4305 645.094C-72.6933 601.767 -60.1788 558.827 -38.6311 518.825C-17.0833 478.823 13.058 442.577 50.0011 412.239C86.9443 381.902 129.935 358.093 176.419 342.229C222.902 326.365 271.929 318.768 320.585 319.891C369.241 321.013 416.534 330.833 459.651 348.765C502.769 366.697 540.831 392.375 571.576 424.275C597.734 451.415 618.141 482.587 631.962 516.418C635.98 526.255 646.838 531.906 656.974 528.763Z" fill="#69A8E3"/>
<path d="M624.872 541.789C634.099 538.929 639.171 529.152 635.577 520.173C621.608 485.271 600.768 453.116 573.944 425.169C542.958 392.887 504.62 366.88 461.209 348.693C417.797 330.507 370.198 320.512 321.241 319.304C272.284 318.095 222.968 325.697 176.224 341.659C129.481 357.62 86.2641 381.614 49.1429 412.215C12.0218 442.816 -18.2461 479.399 -39.8616 519.79C-61.477 560.181 -73.9989 603.555 -76.6828 647.334C-79.0124 685.335 -73.8884 722.968 -61.591 758.549C-58.4738 767.569 -48.3253 771.957 -39.3977 768.622C-30.2575 765.207 -25.8954 755.016 -29.0072 745.756C-39.6216 714.169 -44.016 680.838 -41.9531 647.187C-39.5238 607.561 -28.19 568.302 -8.6252 531.743C10.9396 495.184 38.3359 462.072 71.9353 434.374C105.535 406.676 144.651 384.958 186.96 370.511C229.269 356.065 273.906 349.184 318.219 350.277C362.531 351.371 405.615 360.417 444.908 376.878C484.201 393.34 518.901 416.879 546.947 446.099C570.832 470.983 589.474 499.553 602.111 530.55C605.762 539.506 615.646 544.649 624.872 541.789Z" fill="#6A4497"/>
<path d="M594.343 552.898C602.736 550.296 607.348 541.403 604.081 533.236C591.362 501.444 572.392 472.152 547.977 446.692C519.779 417.288 484.895 393.595 445.399 377.022C405.902 360.449 362.599 351.334 318.063 350.218C273.527 349.103 228.668 356.01 186.151 370.53C143.635 385.049 104.329 406.884 70.571 434.737C36.8125 462.59 9.29033 495.892 -10.3597 532.664C-30.0098 569.436 -41.3865 608.927 -43.8138 648.789C-45.921 683.396 -41.2458 717.67 -30.0437 750.077C-27.2077 758.282 -17.9757 762.275 -9.8546 759.24C-1.54188 756.133 2.42544 746.865 -0.405347 738.443C-10.0763 709.673 -14.0871 679.314 -12.2209 648.666C-10.0239 612.585 0.273485 576.841 18.0593 543.557C35.8451 510.274 60.7562 480.132 91.312 454.921C121.868 429.711 157.444 409.947 195.927 396.805C234.41 383.663 275.013 377.411 315.324 378.421C355.635 379.43 394.829 387.681 430.579 402.681C466.328 417.682 497.903 439.127 523.425 465.742C545.165 488.412 562.135 514.439 573.641 542.674C576.961 550.821 585.95 555.499 594.343 552.898Z" fill="#D8555A"/>
</g>
</svg>
