<svg width="316" height="145" viewBox="0 0 316 145" fill="none" xmlns="http://www.w3.org/2000/svg">
<g opacity="0.9">
<path d="M98.5494 11.562C78.9487 19.5088 61.3609 31.1931 46.2794 46.27C31.1935 61.3513 19.5221 78.9432 11.5709 98.5393C3.89482 117.472 0 137.478 0 158C0 178.517 3.89482 198.524 11.5709 217.448C19.5221 237.048 31.1979 254.64 46.2794 269.717C61.3609 284.803 78.9443 296.478 98.5494 304.425C117.482 312.11 137.485 315.991 158.007 315.991C178.529 315.991 198.527 312.096 217.459 304.425C237.056 296.478 254.652 284.803 269.729 269.717C284.815 254.64 296.491 237.057 304.438 217.448C312.114 198.524 316 178.517 316 158C316 137.478 312.11 117.472 304.438 98.5393C296.491 78.9432 284.806 61.3469 269.729 46.27C254.652 31.1931 237.073 19.5088 217.459 11.562C198.527 3.8904 178.529 0 158.007 0C137.485 0 117.482 3.8904 98.5494 11.562ZM39.4896 224.512C31.879 219.736 24.8666 214.234 18.6576 207.754C9.17378 181.067 7.56695 152.175 13.8502 124.75C16.8062 118.921 20.1684 113.324 23.9715 107.962C25.146 106.307 26.2333 104.582 27.4908 102.976L63.1467 124.074C63.1467 124.353 63.1467 124.659 63.1467 124.969C63.055 144.146 65.0024 163.183 68.8798 181.945C68.8929 182.032 68.906 182.08 68.9235 182.159L41.2711 225.517C40.6686 225.211 40.0704 224.879 39.4896 224.512ZM145.506 297.81C151.658 300.949 157.985 303.6 164.486 305.757C136.869 306.957 108.976 300.486 84.3194 286.34L144.091 296.989C144.549 297.282 145.017 297.561 145.506 297.81ZM145.287 287.021L74.7526 274.45C66.5001 264.429 59.0773 253.828 52.698 242.497C51.0737 239.615 49.2616 236.817 47.8862 233.808L75.5123 190.494C76.1236 190.647 76.8048 190.809 77.5776 191.014C94.8598 195.638 112.448 198.926 130.158 201.502C131.193 201.646 132.057 201.772 132.795 201.851L165.91 259.107C160.164 267.184 154.352 275.218 148.414 283.165C147.427 284.488 146.379 285.759 145.287 287.021ZM262.638 262.63C257.023 268.25 251.063 273.315 244.823 277.83C243.789 269.56 242.003 261.456 239.483 253.54L274.816 187.626C284.549 183.194 293.937 178.168 302.652 171.937C303.792 171.13 304.739 170.226 305.473 169.239C302.914 203.301 288.636 236.638 262.638 262.63ZM261.071 177.146C262.385 179.653 263.682 182.185 264.983 184.752L230.855 248.414C230.659 248.457 230.471 248.501 230.275 248.527C211.827 251.972 193.23 253.806 174.477 253.893L140.419 195.005C145.72 185.163 150.972 175.282 156.181 165.397C159.718 158.69 163.194 151.94 166.665 145.194L237.152 137.954C245.784 150.617 253.962 163.55 261.071 177.146ZM246.771 101.635C243.426 110.468 239.846 119.21 236.287 127.968L167.621 135.02C166.8 133.937 165.949 132.872 165.054 131.854C156.946 122.672 148.785 113.546 140.637 104.395C140.711 104.303 140.785 104.233 140.86 104.15C137.572 100.867 134.275 97.5831 130.987 94.2909L150.103 36.7383C151.422 36.389 152.749 36.0964 154.09 35.9524C164.482 34.8957 174.887 33.6993 185.305 33.0968C191.685 32.7387 198.099 32.5335 204.587 32.992L251.884 86.3005C250.255 91.444 248.666 96.6007 246.771 101.635ZM262.638 53.3609C275.685 66.4162 285.789 81.3141 292.932 97.2294C284.095 91.1471 274.646 86.1433 264.712 82.0652C263.167 81.4277 261.582 80.8644 259.97 80.3099L213.416 27.8397C213.739 25.5736 213.909 23.3031 213.979 21.0151C231.689 28.224 248.29 39.0175 262.638 53.3609ZM110.618 18.26C110.802 18.3953 110.889 18.5089 110.994 18.5394C121.635 22.2159 131.315 27.6301 140.441 34.053L122.582 87.8331C122.49 87.8593 122.403 87.8855 122.316 87.9248C118.661 89.4355 114.936 90.7891 111.339 92.4265C96.5147 99.1637 82.0619 106.626 68.4475 115.572L33.2064 94.7231C33.2588 93.6228 33.4465 92.5051 33.8221 91.5095C36.1886 85.2045 38.5159 78.8646 41.1925 72.6863C43.2535 67.927 45.6026 63.3292 48.1656 58.8363C49.8423 56.985 51.5802 55.1511 53.3704 53.3609C70.1068 36.6291 89.8865 24.7484 110.946 17.7229C110.836 17.8932 110.723 18.0722 110.618 18.26Z" fill="url(#paint0_linear)"/>
</g>
<defs>
<linearGradient id="paint0_linear" x1="158" y1="0" x2="158" y2="315.991" gradientUnits="userSpaceOnUse">
<stop stop-color="#D8555A"/>
<stop offset="1" stop-color="#DD7F4C"/>
</linearGradient>
</defs>
</svg>
