<svg width="343" height="343" viewBox="0 0 343 343" fill="none" xmlns="http://www.w3.org/2000/svg">
<path d="M316.391 91.2341L316.392 90.7008L313.516 90.6918L313.445 113.35C306.61 107.69 298.832 103.023 291.35 99.3025C272.109 89.7334 251.089 83.8789 229.844 80.2979L229.878 69.5276C240.295 60.542 249.638 73.6724 256.544 60.7014C240.321 60.9143 243.882 50.9844 229.935 51.8405L229.936 51.3072L227.06 51.2981L226.97 79.8175C221.782 78.9928 216.585 78.3002 211.401 77.7199C182.456 74.4806 152.905 74.7324 124.046 78.7204C121.381 79.0885 118.709 79.4963 116.035 79.9281L115.945 51.2981L113.069 51.3072L113.07 51.8405C99.1219 50.9844 102.684 60.9152 86.4612 60.7014C93.3648 73.6724 102.71 60.542 113.126 69.5276L113.161 80.3978C89.1894 84.4766 65.1468 91.3216 44.1626 103.551C39.3194 106.373 34.2698 109.772 29.5611 113.692L29.4885 90.6909L26.6125 90.7L26.6141 91.2333C12.6615 90.3764 16.2244 100.308 0 100.095C6.90695 113.065 16.25 99.9365 26.6661 108.922L26.6901 116.187C16.5166 125.449 8.64215 137.294 9.29347 151.19C10.0463 167.279 19.4364 179.79 31.487 189.368V212.34C26.9922 208.501 23.5366 204.542 21.2566 200.81C19.9977 198.756 19.0393 196.807 18.3302 195.05C17.6467 193.286 17.1646 191.726 16.8839 190.434C16.5983 189.143 16.4068 188.133 16.3292 187.448C16.2376 186.76 16.1905 186.405 16.1905 186.405C16.1905 186.405 16.1633 186.763 16.1113 187.454C16.0518 188.149 16.0048 189.186 16.0626 190.543C16.1913 193.236 16.6561 197.33 18.7017 202.114C19.7014 204.504 21.0395 207.068 22.7665 209.688C24.4818 212.317 26.6314 214.956 29.1013 217.6C29.8591 218.406 30.6624 219.206 31.4862 220.002V240.903C26.9914 237.064 23.5358 233.106 21.2558 229.374C19.9969 227.32 19.0385 225.371 18.3294 223.614C17.6459 221.85 17.1638 220.29 16.8831 218.997C16.5975 217.707 16.406 216.696 16.3284 216.012C16.2368 215.324 16.1897 214.969 16.1897 214.969C16.1897 214.969 16.1625 215.327 16.1104 216.018C16.051 216.713 16.004 217.75 16.0617 219.107C16.1905 221.8 16.6553 225.893 18.7025 230.678C19.7022 233.067 21.0403 235.631 22.7673 238.252C24.4827 240.881 26.6323 243.519 29.1022 246.163C29.86 246.968 30.6615 247.767 31.4854 248.564L32.0962 249.142C36.5539 253.358 41.9106 257.43 47.9954 261.205C51.7506 263.537 55.7864 265.746 60.0427 267.853C64.3023 269.952 68.8054 271.893 73.486 273.745C82.8661 277.39 93.009 280.523 103.662 283.005C108.982 284.275 114.437 285.345 119.977 286.29C120.251 286.337 120.527 286.378 120.801 286.424L122.384 291.699L125.73 290.695L129.074 289.692L117.206 250.163C153.701 240.894 189.3 240.894 225.793 250.163L213.925 289.691L217.271 290.695L220.615 291.7L222.198 286.426C222.472 286.38 222.749 286.338 223.022 286.291C228.563 285.346 234.018 284.275 239.339 283.006C249.989 280.524 260.134 277.391 269.515 273.745C274.194 271.894 278.699 269.953 282.958 267.854C287.213 265.746 291.25 263.538 295.004 261.206C301.089 257.431 306.444 253.359 310.905 249.143L311.515 248.564C312.339 247.769 313.141 246.969 313.897 246.164C318.876 240.906 322.353 235.492 324.311 230.685C326.324 225.886 326.843 221.81 326.942 219.109C326.994 217.749 326.952 216.705 326.89 216.019C326.838 215.327 326.811 214.97 326.811 214.97C326.811 214.97 326.762 215.325 326.671 216.012C326.592 216.706 326.405 217.711 326.113 218.997C325.826 220.289 325.338 221.846 324.662 223.612C323.963 225.372 323.001 227.32 321.73 229.367C320.447 231.407 318.868 233.556 316.922 235.697C315.333 237.429 313.53 239.183 311.515 240.905V220.002C312.338 219.206 313.142 218.406 313.898 217.6C318.875 212.342 322.354 206.927 324.31 202.12C326.323 197.322 326.843 193.245 326.942 190.544C326.994 189.184 326.951 188.14 326.89 187.454C326.838 186.763 326.81 186.405 326.81 186.405C326.81 186.405 326.762 186.76 326.67 187.448C326.591 188.141 326.404 189.146 326.112 190.433C325.825 191.725 325.337 193.282 324.662 195.047C323.964 196.807 323.001 198.755 321.731 200.803C320.446 202.842 318.869 204.991 316.923 207.132C315.333 208.865 313.53 210.619 311.514 212.341V189.675C323.695 180.036 333.08 167.419 334.024 151.115C333.973 136.793 326.501 125.104 316.312 115.842L316.333 108.921C326.75 99.9357 336.094 113.064 342.999 100.094C326.776 100.308 330.339 90.3764 316.391 91.2341ZM231.162 94.5592C244.87 97.1538 258.357 100.821 271.315 105.869C282.872 110.372 297.08 116.894 307.094 126.412L252.066 160.586C241.167 152.189 223.685 145.661 202.714 142.362L231.162 94.5592ZM189.807 89.6929C200.714 90.293 211.678 91.3786 222.545 93.0808L193.911 141.193C186.735 140.408 179.228 139.989 171.501 139.989C163.772 139.989 156.266 140.407 149.089 141.193L120.449 93.0684C143.346 89.4436 166.668 88.42 189.807 89.6929ZM45.9283 118.651C65.4951 105.722 88.9137 98.8328 111.838 94.5576L140.287 142.361C119.316 145.661 101.834 152.188 90.9345 160.585L35.8779 126.392C39.0049 123.515 42.4406 120.954 45.9283 118.651ZM70.2872 261.306C63.736 259.068 57.6157 256.592 52.0362 253.891C48.2925 252.113 44.8279 250.185 41.6209 248.219C40.9489 247.807 40.2959 247.39 39.6487 246.97V226.936C42.2491 228.897 45.0351 230.806 47.9954 232.644C51.7506 234.976 55.7873 237.184 60.0427 239.292C63.3224 240.908 66.7482 242.429 70.2872 243.889V261.306ZM70.2872 232.744C63.736 230.506 57.6141 228.029 52.0345 225.328C48.2909 223.55 44.8279 221.622 41.6209 219.655C40.9473 219.245 40.2959 218.827 39.6487 218.406V195.199C42.5058 197.041 45.4272 198.746 48.3536 200.321C55.4009 204.115 62.7495 207.342 70.2872 210.123V232.744ZM63.0863 191.966C51.692 186.751 40.1853 180.273 31.8156 170.745C27.7748 166.147 21.9129 157.508 23.1156 150.75C23.7009 147.465 24.628 141.916 26.7107 137.753C27.731 135.898 28.9131 134.146 30.2125 132.482L84.7582 166.357C80.8981 170.846 78.7782 175.711 78.7782 180.795C78.7782 188.785 84.002 196.237 93.0198 202.53C82.7448 199.806 72.6894 196.36 63.0863 191.966ZM106.28 270.479C96.5314 268.699 87.1835 266.493 78.448 263.9V247.03C86.4133 249.892 94.8598 252.392 103.661 254.444C106.319 255.078 109.01 255.662 111.727 256.206L116.518 272.161C113.066 271.641 109.649 271.077 106.28 270.479ZM264.554 263.9C255.818 266.494 246.47 268.699 236.72 270.479C233.352 271.077 229.934 271.641 226.482 272.162L231.273 256.207C233.991 255.663 236.682 255.078 239.34 254.444C248.143 252.393 256.589 249.892 264.554 247.031V263.9H264.554ZM264.554 235.337C255.818 237.931 246.47 240.137 236.722 241.917C233.725 242.448 230.688 242.954 227.624 243.426C189.898 233.823 153.104 233.823 115.377 243.426C112.313 242.954 109.277 242.448 106.28 241.917C96.5298 240.138 87.1835 237.931 78.448 235.337V212.941C95.0208 218.255 112.337 221.545 129.4 223.637C157.701 227.106 186.542 227.061 214.836 223.551C231.546 221.477 248.389 218.222 264.554 213.056V235.337ZM303.353 246.97C302.707 247.391 302.054 247.808 301.379 248.219C298.172 250.186 294.709 252.113 290.965 253.892C285.385 256.592 279.263 259.068 272.715 261.307V243.89C276.252 242.429 279.68 240.909 282.959 239.292C287.214 237.186 291.251 234.977 295.005 232.645C297.967 230.807 300.753 228.897 303.353 226.937V246.97ZM303.353 218.406C302.707 218.827 302.054 219.245 301.381 219.655C298.174 221.622 294.711 223.549 290.967 225.328C285.387 228.029 279.265 230.506 272.715 232.744V210.246C279.62 207.714 286.381 204.811 292.914 201.452C296.437 199.642 299.947 197.649 303.353 195.47V218.406ZM319.585 150.701C319.465 163.122 308.326 174.851 297.427 182.151C283.261 191.639 266.983 197.943 250.28 202.318C259.114 196.07 264.222 188.695 264.222 180.794C264.222 175.711 262.104 170.845 258.243 166.356L312.613 132.591C316.52 137.834 319.112 143.831 319.585 150.701Z" fill="url(#paint0_linear)"/>
<defs>
<linearGradient id="paint0_linear" x1="171.5" y1="51.2981" x2="171.5" y2="291.7" gradientUnits="userSpaceOnUse">
<stop stop-color="#69A8E3"/>
<stop offset="1" stop-color="#92C868"/>
</linearGradient>
</defs>
</svg>
